<?xml version="1.0" encoding="utf-8" standalone="no"?>
<!DOCTYPE svg PUBLIC "-//W3C//DTD SVG 1.1//EN"
  "http://www.w3.org/Graphics/SVG/1.1/DTD/svg11.dtd">
<svg height="288pt" version="1.1" viewBox="0 0 360 288" width="360pt" xmlns="http://www.w3.org/2000/svg" xmlns:xlink="http://www.w3.org/1999/xlink">
 <metadata>
  <rdf:RDF xmlns:cc="http://creativecommons.org/ns#" xmlns:dc="http://purl.org/dc/elements/1.1/" xmlns:rdf="http://www.w3.org/1999/02/22-rdf-syntax-ns#">
   <cc:Work>
    <dc:type rdf:resource="http://purl.org/dc/dcmitype/StillImage"/>
    <dc:date>2021-10-13T13:45:48.933605</dc:date>
    <dc:format>image/svg+xml</dc:format>
    <dc:creator>
     <cc:Agent>
      <dc:title>Matplotlib v3.4.3, https://matplotlib.org/</dc:title>
     </cc:Agent>
    </dc:creator>
   </cc:Work>
  </rdf:RDF>
 </metadata>
 <defs>
  <style type="text/css">*{stroke-linecap:butt;stroke-linejoin:round;}</style>
 </defs>
 <g id="figure_1">
  <g id="patch_1">
   <path d="M 0 288 
L 360 288 
L 360 0 
L 0 0 
z
" style="fill:none;"/>
  </g>
  <g id="axes_1">
   <g id="patch_2">
    <path d="M 54 250.56 
L 338.4 250.56 
L 338.4 20.16 
L 54 20.16 
z
" style="fill:#ffffff;"/>
   </g>
   <g id="matplotlib.axis_1">
    <g id="xtick_1">
     <g id="line2d_1">
      <path clip-path="url(#p8e169190b8)" d="M 54 250.56 
L 54 20.16 
" style="fill:none;stroke:#b0b0b0;stroke-dasharray:0.8,1.32;stroke-dashoffset:0;stroke-width:0.8;"/>
     </g>
     <g id="line2d_2">
      <defs>
       <path d="M 0 0 
L 0 -3.5 
" id="mcd5e2ddb1f" style="stroke:#000000;stroke-width:0.8;"/>
      </defs>
      <g>
       <use style="stroke:#000000;stroke-width:0.8;" x="54" xlink:href="#mcd5e2ddb1f" y="250.56"/>
      </g>
     </g>
     <g id="line2d_3">
      <defs>
       <path d="M 0 0 
L 0 3.5 
" id="m28b0e5d329" style="stroke:#000000;stroke-width:0.8;"/>
      </defs>
      <g>
       <use style="stroke:#000000;stroke-width:0.8;" x="54" xlink:href="#m28b0e5d329" y="20.16"/>
      </g>
     </g>
     <g id="text_1">
      <!-- $\mathdefault{−5}$ -->
      <g transform="translate(46.42426 262.36218)scale(0.12 -0.12)">
       <defs>
        <path d="M 4218 1472 
C 4326 1472 4442 1472 4442 1600 
C 4442 1728 4326 1728 4218 1728 
L 755 1728 
C 646 1728 531 1728 531 1600 
C 531 1472 646 1472 755 1472 
L 4218 1472 
z
" id="CMSY10-0" transform="scale(0.015625)"/>
        <path d="M 730 3692 
C 794 3666 1056 3584 1325 3584 
C 1920 3584 2246 3911 2432 4100 
C 2432 4157 2432 4192 2394 4192 
C 2387 4192 2374 4192 2323 4163 
C 2099 4058 1837 3973 1517 3973 
C 1325 3973 1037 3999 723 4139 
C 653 4171 640 4171 634 4171 
C 602 4171 595 4164 595 4037 
L 595 2203 
C 595 2089 595 2057 659 2057 
C 691 2057 704 2070 736 2114 
C 941 2401 1222 2522 1542 2522 
C 1766 2522 2246 2382 2246 1289 
C 2246 1085 2246 715 2054 421 
C 1894 159 1645 25 1370 25 
C 947 25 518 320 403 814 
C 429 807 480 795 506 795 
C 589 795 749 840 749 1038 
C 749 1210 627 1280 506 1280 
C 358 1280 262 1190 262 1011 
C 262 454 704 -128 1382 -128 
C 2042 -128 2669 440 2669 1264 
C 2669 2030 2170 2624 1549 2624 
C 1222 2624 947 2503 730 2274 
L 730 3692 
z
" id="CMR17-35" transform="scale(0.015625)"/>
       </defs>
       <use transform="scale(0.996264)" xlink:href="#CMSY10-0"/>
       <use transform="translate(77.487468 0)scale(0.996264)" xlink:href="#CMR17-35"/>
      </g>
     </g>
    </g>
    <g id="xtick_2">
     <g id="line2d_4">
      <path clip-path="url(#p8e169190b8)" d="M 110.88 250.56 
L 110.88 20.16 
" style="fill:none;stroke:#b0b0b0;stroke-dasharray:0.8,1.32;stroke-dashoffset:0;stroke-width:0.8;"/>
     </g>
     <g id="line2d_5">
      <g>
       <use style="stroke:#000000;stroke-width:0.8;" x="110.88" xlink:href="#mcd5e2ddb1f" y="250.56"/>
      </g>
     </g>
     <g id="line2d_6">
      <g>
       <use style="stroke:#000000;stroke-width:0.8;" x="110.88" xlink:href="#m28b0e5d329" y="20.16"/>
      </g>
     </g>
     <g id="text_2">
      <!-- $\mathdefault{0}$ -->
      <g transform="translate(107.953505 262.36218)scale(0.12 -0.12)">
       <defs>
        <path d="M 2688 2025 
C 2688 2416 2682 3080 2413 3591 
C 2176 4039 1798 4198 1466 4198 
C 1158 4198 768 4058 525 3597 
C 269 3118 243 2524 243 2025 
C 243 1661 250 1106 448 619 
C 723 -39 1216 -128 1466 -128 
C 1760 -128 2208 -7 2470 600 
C 2662 1042 2688 1559 2688 2025 
z
M 1466 -26 
C 1056 -26 813 325 723 812 
C 653 1188 653 1738 653 2096 
C 653 2588 653 2997 736 3387 
C 858 3929 1216 4096 1466 4096 
C 1728 4096 2067 3923 2189 3400 
C 2272 3036 2278 2607 2278 2096 
C 2278 1680 2278 1169 2202 792 
C 2067 95 1690 -26 1466 -26 
z
" id="CMR17-30" transform="scale(0.015625)"/>
       </defs>
       <use transform="scale(0.996264)" xlink:href="#CMR17-30"/>
      </g>
     </g>
    </g>
    <g id="xtick_3">
     <g id="line2d_7">
      <path clip-path="url(#p8e169190b8)" d="M 167.76 250.56 
L 167.76 20.16 
" style="fill:none;stroke:#b0b0b0;stroke-dasharray:0.8,1.32;stroke-dashoffset:0;stroke-width:0.8;"/>
     </g>
     <g id="line2d_8">
      <g>
       <use style="stroke:#000000;stroke-width:0.8;" x="167.76" xlink:href="#mcd5e2ddb1f" y="250.56"/>
      </g>
     </g>
     <g id="line2d_9">
      <g>
       <use style="stroke:#000000;stroke-width:0.8;" x="167.76" xlink:href="#m28b0e5d329" y="20.16"/>
      </g>
     </g>
     <g id="text_3">
      <!-- $\mathdefault{5}$ -->
      <g transform="translate(164.833505 262.36218)scale(0.12 -0.12)">
       <use transform="scale(0.996264)" xlink:href="#CMR17-35"/>
      </g>
     </g>
    </g>
    <g id="xtick_4">
     <g id="line2d_10">
      <path clip-path="url(#p8e169190b8)" d="M 224.64 250.56 
L 224.64 20.16 
" style="fill:none;stroke:#b0b0b0;stroke-dasharray:0.8,1.32;stroke-dashoffset:0;stroke-width:0.8;"/>
     </g>
     <g id="line2d_11">
      <g>
       <use style="stroke:#000000;stroke-width:0.8;" x="224.64" xlink:href="#mcd5e2ddb1f" y="250.56"/>
      </g>
     </g>
     <g id="line2d_12">
      <g>
       <use style="stroke:#000000;stroke-width:0.8;" x="224.64" xlink:href="#m28b0e5d329" y="20.16"/>
      </g>
     </g>
     <g id="text_4">
      <!-- $\mathdefault{10}$ -->
      <g transform="translate(218.78701 262.36218)scale(0.12 -0.12)">
       <defs>
        <path d="M 1702 4058 
C 1702 4192 1696 4192 1606 4192 
C 1357 3916 979 3827 621 3827 
C 602 3827 570 3827 563 3808 
C 557 3795 557 3782 557 3648 
C 755 3648 1088 3686 1344 3839 
L 1344 461 
C 1344 236 1331 160 781 160 
L 589 160 
L 589 0 
C 896 0 1216 0 1523 0 
C 1830 0 2150 0 2458 0 
L 2458 160 
L 2266 160 
C 1715 160 1702 230 1702 458 
L 1702 4058 
z
" id="CMR17-31" transform="scale(0.015625)"/>
       </defs>
       <use transform="scale(0.996264)" xlink:href="#CMR17-31"/>
       <use transform="translate(45.690477 0)scale(0.996264)" xlink:href="#CMR17-30"/>
      </g>
     </g>
    </g>
    <g id="xtick_5">
     <g id="line2d_13">
      <path clip-path="url(#p8e169190b8)" d="M 281.52 250.56 
L 281.52 20.16 
" style="fill:none;stroke:#b0b0b0;stroke-dasharray:0.8,1.32;stroke-dashoffset:0;stroke-width:0.8;"/>
     </g>
     <g id="line2d_14">
      <g>
       <use style="stroke:#000000;stroke-width:0.8;" x="281.52" xlink:href="#mcd5e2ddb1f" y="250.56"/>
      </g>
     </g>
     <g id="line2d_15">
      <g>
       <use style="stroke:#000000;stroke-width:0.8;" x="281.52" xlink:href="#m28b0e5d329" y="20.16"/>
      </g>
     </g>
     <g id="text_5">
      <!-- $\mathdefault{15}$ -->
      <g transform="translate(275.66701 262.36218)scale(0.12 -0.12)">
       <use transform="scale(0.996264)" xlink:href="#CMR17-31"/>
       <use transform="translate(45.690477 0)scale(0.996264)" xlink:href="#CMR17-35"/>
      </g>
     </g>
    </g>
    <g id="xtick_6">
     <g id="line2d_16">
      <path clip-path="url(#p8e169190b8)" d="M 338.4 250.56 
L 338.4 20.16 
" style="fill:none;stroke:#b0b0b0;stroke-dasharray:0.8,1.32;stroke-dashoffset:0;stroke-width:0.8;"/>
     </g>
     <g id="line2d_17">
      <g>
       <use style="stroke:#000000;stroke-width:0.8;" x="338.4" xlink:href="#mcd5e2ddb1f" y="250.56"/>
      </g>
     </g>
     <g id="line2d_18">
      <g>
       <use style="stroke:#000000;stroke-width:0.8;" x="338.4" xlink:href="#m28b0e5d329" y="20.16"/>
      </g>
     </g>
     <g id="text_6">
      <!-- $\mathdefault{20}$ -->
      <g transform="translate(332.54701 262.36218)scale(0.12 -0.12)">
       <defs>
        <path d="M 2669 989 
L 2554 989 
C 2490 536 2438 459 2413 420 
C 2381 369 1920 369 1830 369 
L 602 369 
C 832 619 1280 1072 1824 1597 
C 2214 1967 2669 2402 2669 3035 
C 2669 3790 2067 4224 1395 4224 
C 691 4224 262 3604 262 3030 
C 262 2780 448 2748 525 2748 
C 589 2748 781 2787 781 3010 
C 781 3207 614 3264 525 3264 
C 486 3264 448 3258 422 3245 
C 544 3790 915 4058 1306 4058 
C 1862 4058 2227 3617 2227 3035 
C 2227 2479 1901 2000 1536 1584 
L 262 146 
L 262 0 
L 2515 0 
L 2669 989 
z
" id="CMR17-32" transform="scale(0.015625)"/>
       </defs>
       <use transform="scale(0.996264)" xlink:href="#CMR17-32"/>
       <use transform="translate(45.690477 0)scale(0.996264)" xlink:href="#CMR17-30"/>
      </g>
     </g>
    </g>
    <g id="text_7">
     <!-- $x$ -->
     <g transform="translate(192.873956 276.988955)scale(0.12 -0.12)">
      <defs>
       <path d="M 3034 2606 
C 2829 2567 2752 2414 2752 2293 
C 2752 2139 2874 2088 2963 2088 
C 3155 2088 3290 2254 3290 2427 
C 3290 2695 2982 2816 2714 2816 
C 2323 2816 2106 2433 2048 2312 
C 1901 2816 1504 2816 1389 2816 
C 736 2816 390 1980 390 1839 
C 390 1814 416 1782 461 1782 
C 512 1782 525 1820 538 1846 
C 755 2555 1184 2689 1370 2689 
C 1658 2689 1715 2420 1715 2267 
C 1715 2127 1677 1980 1600 1673 
L 1382 798 
C 1286 415 1101 64 762 64 
C 730 64 570 64 435 147 
C 666 192 717 383 717 460 
C 717 588 621 664 499 664 
C 346 664 179 530 179 326 
C 179 57 480 -64 755 -64 
C 1062 -64 1280 179 1414 441 
C 1517 64 1837 -64 2074 -64 
C 2726 -64 3072 773 3072 913 
C 3072 945 3046 971 3008 971 
C 2950 971 2944 939 2925 888 
C 2752 326 2381 64 2093 64 
C 1869 64 1747 230 1747 492 
C 1747 632 1773 734 1875 1156 
L 2099 2024 
C 2195 2408 2413 2689 2707 2689 
C 2720 2689 2899 2689 3034 2606 
z
" id="CMMI12-78" transform="scale(0.015625)"/>
      </defs>
      <use transform="scale(0.996264)" xlink:href="#CMMI12-78"/>
     </g>
    </g>
   </g>
   <g id="matplotlib.axis_2">
    <g id="ytick_1">
     <g id="line2d_19">
      <path clip-path="url(#p8e169190b8)" d="M 54 250.56 
L 338.4 250.56 
" style="fill:none;stroke:#b0b0b0;stroke-dasharray:0.8,1.32;stroke-dashoffset:0;stroke-width:0.8;"/>
     </g>
     <g id="line2d_20">
      <defs>
       <path d="M 0 0 
L 3.5 0 
" id="mdb98c64ef2" style="stroke:#000000;stroke-width:0.8;"/>
      </defs>
      <g>
       <use style="stroke:#000000;stroke-width:0.8;" x="54" xlink:href="#mdb98c64ef2" y="250.56"/>
      </g>
     </g>
     <g id="line2d_21">
      <defs>
       <path d="M 0 0 
L -3.5 0 
" id="m909b890b05" style="stroke:#000000;stroke-width:0.8;"/>
      </defs>
      <g>
       <use style="stroke:#000000;stroke-width:0.8;" x="338.4" xlink:href="#m909b890b05" y="250.56"/>
      </g>
     </g>
     <g id="text_8">
      <!-- $\mathdefault{0.0}$ -->
      <g transform="translate(35.542358 254.71109)scale(0.12 -0.12)">
       <defs>
        <path d="M 1178 307 
C 1178 492 1024 619 870 619 
C 685 619 557 466 557 313 
C 557 128 710 0 864 0 
C 1050 0 1178 153 1178 307 
z
" id="CMMI12-3a" transform="scale(0.015625)"/>
       </defs>
       <use transform="scale(0.996264)" xlink:href="#CMR17-30"/>
       <use transform="translate(45.690477 0)scale(0.996264)" xlink:href="#CMMI12-3a"/>
       <use transform="translate(72.787654 0)scale(0.996264)" xlink:href="#CMR17-30"/>
      </g>
     </g>
    </g>
    <g id="ytick_2">
     <g id="line2d_22">
      <path clip-path="url(#p8e169190b8)" d="M 54 204.48 
L 338.4 204.48 
" style="fill:none;stroke:#b0b0b0;stroke-dasharray:0.8,1.32;stroke-dashoffset:0;stroke-width:0.8;"/>
     </g>
     <g id="line2d_23">
      <g>
       <use style="stroke:#000000;stroke-width:0.8;" x="54" xlink:href="#mdb98c64ef2" y="204.48"/>
      </g>
     </g>
     <g id="line2d_24">
      <g>
       <use style="stroke:#000000;stroke-width:0.8;" x="338.4" xlink:href="#m909b890b05" y="204.48"/>
      </g>
     </g>
     <g id="text_9">
      <!-- $\mathdefault{0.2}$ -->
      <g transform="translate(35.542358 208.63109)scale(0.12 -0.12)">
       <use transform="scale(0.996264)" xlink:href="#CMR17-30"/>
       <use transform="translate(45.690477 0)scale(0.996264)" xlink:href="#CMMI12-3a"/>
       <use transform="translate(72.787654 0)scale(0.996264)" xlink:href="#CMR17-32"/>
      </g>
     </g>
    </g>
    <g id="ytick_3">
     <g id="line2d_25">
      <path clip-path="url(#p8e169190b8)" d="M 54 158.4 
L 338.4 158.4 
" style="fill:none;stroke:#b0b0b0;stroke-dasharray:0.8,1.32;stroke-dashoffset:0;stroke-width:0.8;"/>
     </g>
     <g id="line2d_26">
      <g>
       <use style="stroke:#000000;stroke-width:0.8;" x="54" xlink:href="#mdb98c64ef2" y="158.4"/>
      </g>
     </g>
     <g id="line2d_27">
      <g>
       <use style="stroke:#000000;stroke-width:0.8;" x="338.4" xlink:href="#m909b890b05" y="158.4"/>
      </g>
     </g>
     <g id="text_10">
      <!-- $\mathdefault{0.4}$ -->
      <g transform="translate(35.542358 162.55109)scale(0.12 -0.12)">
       <defs>
        <path d="M 2150 4122 
C 2150 4256 2144 4256 2029 4256 
L 128 1254 
L 128 1088 
L 1779 1088 
L 1779 457 
C 1779 224 1766 160 1318 160 
L 1197 160 
L 1197 0 
C 1402 0 1747 0 1965 0 
C 2182 0 2528 0 2733 0 
L 2733 160 
L 2611 160 
C 2163 160 2150 224 2150 457 
L 2150 1088 
L 2803 1088 
L 2803 1254 
L 2150 1254 
L 2150 4122 
z
M 1798 3703 
L 1798 1254 
L 256 1254 
L 1798 3703 
z
" id="CMR17-34" transform="scale(0.015625)"/>
       </defs>
       <use transform="scale(0.996264)" xlink:href="#CMR17-30"/>
       <use transform="translate(45.690477 0)scale(0.996264)" xlink:href="#CMMI12-3a"/>
       <use transform="translate(72.787654 0)scale(0.996264)" xlink:href="#CMR17-34"/>
      </g>
     </g>
    </g>
    <g id="ytick_4">
     <g id="line2d_28">
      <path clip-path="url(#p8e169190b8)" d="M 54 112.32 
L 338.4 112.32 
" style="fill:none;stroke:#b0b0b0;stroke-dasharray:0.8,1.32;stroke-dashoffset:0;stroke-width:0.8;"/>
     </g>
     <g id="line2d_29">
      <g>
       <use style="stroke:#000000;stroke-width:0.8;" x="54" xlink:href="#mdb98c64ef2" y="112.32"/>
      </g>
     </g>
     <g id="line2d_30">
      <g>
       <use style="stroke:#000000;stroke-width:0.8;" x="338.4" xlink:href="#m909b890b05" y="112.32"/>
      </g>
     </g>
     <g id="text_11">
      <!-- $\mathdefault{0.6}$ -->
      <g transform="translate(35.542358 116.47109)scale(0.12 -0.12)">
       <defs>
        <path d="M 678 2176 
C 678 3690 1395 4032 1811 4032 
C 1946 4032 2272 4009 2400 3776 
C 2298 3776 2106 3776 2106 3553 
C 2106 3381 2246 3323 2336 3323 
C 2394 3323 2566 3348 2566 3560 
C 2566 3954 2246 4179 1805 4179 
C 1043 4179 243 3390 243 1984 
C 243 253 966 -128 1478 -128 
C 2099 -128 2688 427 2688 1283 
C 2688 2081 2170 2662 1517 2662 
C 1126 2662 838 2407 678 1960 
L 678 2176 
z
M 1478 25 
C 691 25 691 1200 691 1436 
C 691 1896 909 2560 1504 2560 
C 1613 2560 1926 2560 2138 2120 
C 2253 1870 2253 1609 2253 1289 
C 2253 944 2253 690 2118 434 
C 1978 171 1773 25 1478 25 
z
" id="CMR17-36" transform="scale(0.015625)"/>
       </defs>
       <use transform="scale(0.996264)" xlink:href="#CMR17-30"/>
       <use transform="translate(45.690477 0)scale(0.996264)" xlink:href="#CMMI12-3a"/>
       <use transform="translate(72.787654 0)scale(0.996264)" xlink:href="#CMR17-36"/>
      </g>
     </g>
    </g>
    <g id="ytick_5">
     <g id="line2d_31">
      <path clip-path="url(#p8e169190b8)" d="M 54 66.24 
L 338.4 66.24 
" style="fill:none;stroke:#b0b0b0;stroke-dasharray:0.8,1.32;stroke-dashoffset:0;stroke-width:0.8;"/>
     </g>
     <g id="line2d_32">
      <g>
       <use style="stroke:#000000;stroke-width:0.8;" x="54" xlink:href="#mdb98c64ef2" y="66.24"/>
      </g>
     </g>
     <g id="line2d_33">
      <g>
       <use style="stroke:#000000;stroke-width:0.8;" x="338.4" xlink:href="#m909b890b05" y="66.24"/>
      </g>
     </g>
     <g id="text_12">
      <!-- $\mathdefault{0.8}$ -->
      <g transform="translate(35.542358 70.39109)scale(0.12 -0.12)">
       <defs>
        <path d="M 1741 2264 
C 2144 2467 2554 2773 2554 3263 
C 2554 3841 1990 4179 1472 4179 
C 890 4179 378 3759 378 3180 
C 378 3021 416 2747 666 2505 
C 730 2442 998 2251 1171 2130 
C 883 1983 211 1634 211 934 
C 211 279 838 -128 1459 -128 
C 2144 -128 2720 362 2720 1010 
C 2720 1590 2330 1857 2074 2029 
L 1741 2264 
z
M 902 2822 
C 851 2854 595 3051 595 3351 
C 595 3739 998 4032 1459 4032 
C 1965 4032 2336 3676 2336 3262 
C 2336 2669 1670 2331 1638 2331 
C 1632 2331 1626 2331 1574 2370 
L 902 2822 
z
M 2080 1519 
C 2176 1449 2483 1240 2483 851 
C 2483 381 2010 25 1472 25 
C 890 25 448 438 448 940 
C 448 1443 838 1862 1280 2060 
L 2080 1519 
z
" id="CMR17-38" transform="scale(0.015625)"/>
       </defs>
       <use transform="scale(0.996264)" xlink:href="#CMR17-30"/>
       <use transform="translate(45.690477 0)scale(0.996264)" xlink:href="#CMMI12-3a"/>
       <use transform="translate(72.787654 0)scale(0.996264)" xlink:href="#CMR17-38"/>
      </g>
     </g>
    </g>
    <g id="ytick_6">
     <g id="line2d_34">
      <path clip-path="url(#p8e169190b8)" d="M 54 20.16 
L 338.4 20.16 
" style="fill:none;stroke:#b0b0b0;stroke-dasharray:0.8,1.32;stroke-dashoffset:0;stroke-width:0.8;"/>
     </g>
     <g id="line2d_35">
      <g>
       <use style="stroke:#000000;stroke-width:0.8;" x="54" xlink:href="#mdb98c64ef2" y="20.16"/>
      </g>
     </g>
     <g id="line2d_36">
      <g>
       <use style="stroke:#000000;stroke-width:0.8;" x="338.4" xlink:href="#m909b890b05" y="20.16"/>
      </g>
     </g>
     <g id="text_13">
      <!-- $\mathdefault{1.0}$ -->
      <g transform="translate(35.542358 24.31109)scale(0.12 -0.12)">
       <use transform="scale(0.996264)" xlink:href="#CMR17-31"/>
       <use transform="translate(45.690477 0)scale(0.996264)" xlink:href="#CMMI12-3a"/>
       <use transform="translate(72.787654 0)scale(0.996264)" xlink:href="#CMR17-30"/>
      </g>
     </g>
    </g>
    <g id="text_14">
     <!-- $P(X\le x)$ -->
     <g transform="translate(28.553566 161.121541)rotate(-90)scale(0.12 -0.12)">
      <defs>
       <path d="M 1894 2023 
L 2970 2023 
C 3853 2023 4736 2673 4736 3401 
C 4736 3898 4314 4352 3507 4352 
L 1530 4352 
C 1408 4352 1350 4352 1350 4231 
C 1350 4167 1408 4167 1504 4167 
C 1894 4167 1894 4116 1894 4046 
C 1894 4034 1894 3995 1869 3899 
L 1005 472 
C 947 249 934 185 486 185 
C 365 185 301 185 301 70 
C 301 0 358 0 397 0 
C 518 0 646 0 768 0 
L 1517 0 
C 1638 0 1773 0 1894 0 
C 1946 0 2016 0 2016 121 
C 2016 185 1958 185 1862 185 
C 1478 185 1472 230 1472 293 
C 1472 325 1478 369 1485 401 
L 1894 2023 
z
M 2355 3930 
C 2413 4167 2438 4167 2688 4167 
L 3322 4167 
C 3802 4167 4198 4013 4198 3535 
C 4198 3369 4115 2827 3821 2534 
C 3712 2419 3405 2176 2822 2176 
L 1920 2176 
L 2355 3930 
z
" id="CMMI12-50" transform="scale(0.015625)"/>
       <path d="M 1958 -1561 
C 1958 -1555 1958 -1542 1939 -1523 
C 1645 -1224 858 -407 858 1581 
C 858 3569 1632 4379 1946 4697 
C 1946 4704 1958 4717 1958 4736 
C 1958 4755 1939 4768 1914 4768 
C 1843 4768 1299 4296 986 3594 
C 666 2887 576 2199 576 1588 
C 576 1128 621 351 1005 -471 
C 1312 -1135 1837 -1600 1914 -1600 
C 1946 -1600 1958 -1587 1958 -1561 
z
" id="CMR17-28" transform="scale(0.015625)"/>
       <path d="M 3040 2596 
L 2438 3994 
C 2522 4147 2714 4172 2790 4179 
C 2829 4179 2899 4179 2899 4292 
C 2899 4364 2842 4364 2803 4364 
C 2694 4364 2566 4364 2458 4364 
L 2086 4364 
C 1696 4364 1414 4364 1408 4364 
C 1357 4364 1293 4364 1293 4243 
C 1293 4179 1350 4179 1434 4179 
C 1805 4179 1830 4115 1894 3962 
L 2656 2185 
L 1267 693 
C 1037 442 762 198 288 198 
C 211 192 160 192 160 68 
C 160 48 166 0 237 0 
C 326 0 422 0 512 0 
L 813 0 
C 1018 0 1242 0 1440 0 
C 1485 0 1562 0 1562 115 
C 1562 179 1517 185 1478 185 
C 1350 198 1267 268 1267 370 
C 1267 479 1344 557 1530 748 
L 2099 1368 
C 2240 1516 2579 1886 2720 2026 
L 3392 453 
C 3398 441 3424 377 3424 370 
C 3424 313 3283 198 3078 198 
C 3040 198 2970 198 2970 71 
C 2970 0 3034 0 3066 0 
C 3174 0 3302 0 3411 0 
L 4115 0 
C 4230 0 4352 0 4461 0 
C 4506 0 4576 0 4576 130 
C 4576 198 4512 198 4454 198 
C 4070 198 4058 230 3949 465 
L 3104 2441 
L 3917 3316 
C 3981 3381 4128 3542 4186 3606 
C 4461 3896 4717 4160 5235 4160 
C 5299 4179 5363 4179 5363 4292 
C 5363 4364 5306 4364 5280 4364 
C 5190 4364 5094 4364 5005 4364 
L 4710 4364 
C 4506 4364 4282 4364 4083 4364 
C 4038 4364 3962 4364 3962 4249 
C 3962 4185 4006 4179 4045 4179 
C 4147 4167 4256 4116 4256 3994 
L 4250 3982 
C 4243 3937 4230 3873 4160 3797 
L 3040 2596 
z
" id="CMMI12-58" transform="scale(0.015625)"/>
       <path d="M 4320 3812 
C 4390 3844 4442 3876 4442 3952 
C 4442 4023 4390 4080 4314 4080 
C 4282 4080 4224 4055 4198 4042 
L 659 2372 
C 550 2320 531 2276 531 2224 
C 531 2167 570 2122 659 2084 
L 4198 420 
C 4282 375 4294 375 4314 375 
C 4384 375 4442 432 4442 503 
C 4442 560 4416 599 4307 650 
L 960 2224 
L 4320 3812 
z
M 4218 -891 
C 4326 -891 4442 -891 4442 -763 
C 4442 -635 4307 -635 4211 -635 
L 762 -635 
C 666 -635 531 -635 531 -763 
C 531 -891 646 -891 755 -891 
L 4218 -891 
z
" id="CMSY10-14" transform="scale(0.015625)"/>
       <path d="M 1683 1581 
C 1683 2040 1638 2817 1254 3639 
C 947 4303 422 4768 346 4768 
C 326 4768 301 4761 301 4729 
C 301 4717 307 4710 314 4697 
C 621 4378 1402 3568 1402 1584 
C 1402 -407 627 -1217 314 -1537 
C 307 -1549 301 -1556 301 -1568 
C 301 -1600 326 -1600 346 -1600 
C 416 -1600 960 -1128 1274 -426 
C 1594 281 1683 969 1683 1581 
z
" id="CMR17-29" transform="scale(0.015625)"/>
      </defs>
      <use transform="scale(0.996264)" xlink:href="#CMMI12-50"/>
      <use transform="translate(76.425821 0)scale(0.996264)" xlink:href="#CMR17-28"/>
      <use transform="translate(111.706589 0)scale(0.996264)" xlink:href="#CMMI12-58"/>
      <use transform="translate(228.173159 0)scale(0.996264)" xlink:href="#CMSY10-14"/>
      <use transform="translate(333.334636 0)scale(0.996264)" xlink:href="#CMMI12-78"/>
      <use transform="translate(388.768695 0)scale(0.996264)" xlink:href="#CMR17-29"/>
     </g>
    </g>
   </g>
   <g id="line2d_37">
    <path clip-path="url(#p8e169190b8)" d="M 54 249.017967 
L 61.807059 248.392655 
L 68.498824 247.660875 
L 74.075294 246.868554 
L 79.651765 245.864164 
L 84.112941 244.872054 
L 88.574118 243.676728 
L 93.035294 242.239505 
L 97.496471 240.515676 
L 100.842353 239.004243 
L 104.188235 237.279081 
L 107.534118 235.314312 
L 110.88 233.082275 
L 114.225882 230.553844 
L 117.571765 227.698907 
L 120.917647 224.48705 
L 124.263529 220.88846 
L 127.609412 216.875073 
L 130.955294 212.421974 
L 134.301176 207.509018 
L 137.647059 202.122618 
L 140.992941 196.257626 
L 144.338824 189.919144 
L 147.684706 183.124125 
L 151.030588 175.902556 
L 155.491765 165.68754 
L 161.068235 152.180099 
L 169.990588 129.71746 
L 176.682353 113.056862 
L 181.143529 102.421984 
L 185.604706 92.365269 
L 188.950588 85.281716 
L 192.296471 78.636207 
L 195.642353 72.454285 
L 198.988235 66.748798 
L 202.334118 61.521241 
L 205.68 56.763442 
L 209.025882 52.459423 
L 212.371765 48.587257 
L 215.717647 45.120809 
L 219.063529 42.031289 
L 222.409412 39.288568 
L 225.755294 36.862244 
L 229.101176 34.722468 
L 232.447059 32.840559 
L 235.792941 31.189421 
L 239.138824 29.743815 
L 243.6 28.096173 
L 248.061176 26.723373 
L 252.522353 25.582252 
L 258.098824 24.425426 
L 263.675294 23.511729 
L 270.367059 22.666964 
L 278.174118 21.944433 
L 287.096471 21.368596 
L 298.249412 20.90178 
L 312.748235 20.552806 
L 332.823529 20.322709 
L 338.4 20.28736 
L 338.4 20.28736 
" style="fill:none;stroke:#0000ff;stroke-linecap:square;stroke-width:1.5;"/>
   </g>
   <g id="line2d_38">
    <path clip-path="url(#p8e169190b8)" d="M 54 248.413603 
L 64.037647 247.688806 
L 72.96 246.844738 
L 80.767059 245.909052 
L 88.574118 244.74376 
L 95.265882 243.522318 
L 101.957647 242.054081 
L 107.534118 240.609437 
L 113.110588 238.932292 
L 118.687059 236.989868 
L 123.148235 235.220997 
L 127.609412 233.23997 
L 132.070588 231.026333 
L 136.531765 228.558988 
L 140.992941 225.816557 
L 145.454118 222.777853 
L 149.915294 219.422473 
L 154.376471 215.731505 
L 158.837647 211.688369 
L 163.298824 207.279747 
L 167.76 202.496595 
L 172.221176 197.33519 
L 176.682353 191.79814 
L 181.143529 185.8953 
L 185.604706 179.64449 
L 191.181176 171.382434 
L 196.757647 162.688156 
L 203.449412 151.811479 
L 213.487059 134.983531 
L 224.64 116.335824 
L 231.331765 105.558703 
L 236.908235 96.977241 
L 242.484706 88.849606 
L 246.945882 82.718038 
L 251.407059 76.941617 
L 255.868235 71.53531 
L 260.329412 66.506342 
L 264.790588 61.854994 
L 269.251765 57.575561 
L 273.712941 53.657387 
L 278.174118 50.085899 
L 282.635294 46.843599 
L 287.096471 43.910965 
L 291.557647 41.267245 
L 296.018824 38.891124 
L 300.48 36.761275 
L 304.941176 34.856788 
L 309.402353 33.1575 
L 314.978824 31.292834 
L 320.555294 29.683961 
L 326.131765 28.298965 
L 332.823529 26.892147 
L 338.4 25.902588 
L 338.4 25.902588 
" style="fill:none;stroke:#008000;stroke-linecap:square;stroke-width:1.5;"/>
   </g>
   <g id="line2d_39">
    <path clip-path="url(#p8e169190b8)" d="M 54 243.806462 
L 62.922353 242.395338 
L 70.729412 240.931059 
L 78.536471 239.217573 
L 85.228235 237.522363 
L 91.92 235.591103 
L 98.611765 233.396357 
L 104.188235 231.345273 
L 109.764706 229.073779 
L 115.341176 226.564269 
L 120.917647 223.799202 
L 126.494118 220.761512 
L 132.070588 217.435094 
L 137.647059 213.805383 
L 143.223529 209.859997 
L 148.8 205.58945 
L 154.376471 200.987903 
L 159.952941 196.053912 
L 165.529412 190.791151 
L 171.105882 185.209044 
L 176.682353 179.32325 
L 183.374118 171.89114 
L 190.065882 164.104821 
L 197.872941 154.658717 
L 207.910588 142.128665 
L 230.216471 114.145974 
L 238.023529 104.769846 
L 244.715294 97.060933 
L 251.407059 89.719276 
L 256.983529 83.916562 
L 262.56 78.422569 
L 268.136471 73.251172 
L 273.712941 68.410127 
L 279.289412 63.901608 
L 284.865882 59.722866 
L 290.442353 55.866963 
L 296.018824 52.323529 
L 301.595294 49.079501 
L 307.171765 46.119819 
L 312.748235 43.428057 
L 318.324706 40.986969 
L 323.901176 38.778959 
L 329.477647 36.786464 
L 336.169412 34.655738 
L 338.4 34.003964 
L 338.4 34.003964 
" style="fill:none;stroke:#ff0000;stroke-linecap:square;stroke-width:1.5;"/>
   </g>
   <g id="line2d_40">
    <path clip-path="url(#p8e169190b8)" d="M 54 249.62224 
L 64.037647 249.105503 
L 72.96 248.413603 
L 79.651765 247.688806 
L 86.343529 246.723374 
L 91.92 245.680333 
L 96.381176 244.650401 
L 100.842353 243.409976 
L 105.303529 241.919209 
L 108.649412 240.609437 
L 111.995294 239.111379 
L 115.341176 237.40125 
L 118.687059 235.453297 
L 122.032941 233.23997 
L 125.378824 230.732227 
L 128.724706 227.900005 
L 132.070588 224.712883 
L 135.416471 221.140974 
L 138.762353 217.156058 
L 142.108235 212.732962 
L 145.454118 207.851168 
L 148.8 202.496595 
L 152.145882 196.663473 
L 155.491765 190.356168 
L 158.837647 183.590801 
L 162.183529 176.396463 
L 166.644706 166.212427 
L 171.105882 155.480976 
L 177.797647 138.747259 
L 187.835294 113.600914 
L 192.296471 102.941249 
L 196.757647 92.852203 
L 200.103529 85.740684 
L 203.449412 79.06503 
L 206.795294 72.851668 
L 210.141176 67.114256 
L 213.487059 61.854994 
L 216.832941 57.066298 
L 220.178824 52.732654 
L 223.524706 48.832473 
L 226.870588 45.33985 
L 230.216471 42.226131 
L 233.562353 39.461238 
L 236.908235 37.014759 
L 240.254118 34.856788 
L 243.6 32.95855 
L 246.945882 31.292834 
L 250.291765 29.834271 
L 254.752941 28.171643 
L 259.214118 26.786177 
L 263.675294 25.634404 
L 269.251765 24.466664 
L 274.828235 23.544266 
L 281.52 22.691392 
L 289.327059 21.961876 
L 298.249412 21.38044 
L 309.402353 20.909065 
L 322.785882 20.576563 
L 338.4 20.369906 
L 338.4 20.369906 
" style="fill:none;stroke:#00bfbf;stroke-linecap:square;stroke-width:1.5;"/>
   </g>
   <g id="line2d_41">
    <path clip-path="url(#p8e169190b8)" d="M 54 250.350094 
L 64.037647 250.053399 
L 70.729412 249.649312 
L 76.305882 249.076887 
L 80.767059 248.371505 
L 84.112941 247.632675 
L 87.458824 246.648693 
L 89.689412 245.818852 
L 91.92 244.817412 
L 94.150588 243.610959 
L 96.381176 242.160519 
L 98.611765 240.421073 
L 100.842353 238.341232 
L 103.072941 235.863212 
L 105.303529 232.923263 
L 107.534118 229.452755 
L 109.764706 225.38015 
L 111.995294 220.634101 
L 114.225882 215.147853 
L 116.456471 208.865006 
L 118.687059 201.746511 
L 120.917647 193.778383 
L 123.148235 184.979316 
L 125.378824 175.406941 
L 128.724706 159.828796 
L 133.185882 137.618534 
L 138.762353 109.815021 
L 142.108235 94.323537 
L 144.338824 84.8247 
L 146.569412 76.106816 
L 148.8 68.223405 
L 151.030588 61.189579 
L 153.261176 54.988495 
L 155.491765 49.579026 
L 157.722353 44.903443 
L 159.952941 40.894291 
L 162.183529 37.48003 
L 164.414118 34.589294 
L 166.644706 32.153868 
L 168.875294 30.110563 
L 171.105882 28.402224 
L 173.336471 26.978106 
L 175.567059 25.793811 
L 177.797647 24.810948 
L 181.143529 23.643754 
L 184.489412 22.766095 
L 187.835294 22.107647 
L 192.296471 21.479445 
L 197.872941 20.969966 
L 204.564706 20.610483 
L 213.487059 20.365834 
L 227.985882 20.217582 
L 261.444706 20.163041 
L 338.4 20.160004 
L 338.4 20.160004 
" style="fill:none;stroke:#bf00bf;stroke-linecap:square;stroke-width:1.5;"/>
   </g>
   <g id="patch_3">
    <path d="M 54 250.56 
L 54 20.16 
" style="fill:none;stroke:#000000;stroke-linecap:square;stroke-linejoin:miter;stroke-width:0.8;"/>
   </g>
   <g id="patch_4">
    <path d="M 338.4 250.56 
L 338.4 20.16 
" style="fill:none;stroke:#000000;stroke-linecap:square;stroke-linejoin:miter;stroke-width:0.8;"/>
   </g>
   <g id="patch_5">
    <path d="M 54 250.56 
L 338.4 250.56 
" style="fill:none;stroke:#000000;stroke-linecap:square;stroke-linejoin:miter;stroke-width:0.8;"/>
   </g>
   <g id="patch_6">
    <path d="M 54 20.16 
L 338.4 20.16 
" style="fill:none;stroke:#000000;stroke-linecap:square;stroke-linejoin:miter;stroke-width:0.8;"/>
   </g>
   <g id="legend_1">
    <g id="line2d_42">
     <path d="M 229.09827 166.337021 
L 253.09827 166.337021 
" style="fill:none;stroke:#0000ff;stroke-linecap:square;stroke-width:1.5;"/>
    </g>
    <g id="line2d_43"/>
    <g id="text_15">
     <!-- $\mu = 5,\ s = 2$ -->
     <g transform="translate(262.69827 170.537021)scale(0.12 -0.12)">
      <defs>
       <path d="M 922 140 
C 1082 -6 1318 -64 1536 -64 
C 1946 -64 2227 208 2374 405 
C 2438 69 2707 -64 2931 -64 
C 3123 -64 3277 50 3392 277 
C 3494 493 3584 879 3584 903 
C 3584 935 3558 960 3520 960 
C 3462 960 3456 928 3430 834 
C 3334 461 3213 64 2950 64 
C 2765 64 2752 229 2752 358 
C 2752 504 2810 735 2854 926 
L 3034 1615 
C 3059 1737 3130 2023 3162 2139 
C 3200 2292 3270 2567 3270 2592 
C 3270 2688 3194 2752 3098 2752 
C 3040 2752 2906 2726 2854 2535 
L 2406 760 
C 2374 632 2374 619 2291 517 
C 2214 409 1965 64 1562 64 
C 1203 64 1088 326 1088 625 
C 1088 811 1146 1034 1171 1143 
L 1459 2293 
C 1491 2414 1542 2618 1542 2657 
C 1542 2759 1459 2816 1376 2816 
C 1318 2816 1178 2797 1126 2592 
L 198 -1107 
C 192 -1139 179 -1177 179 -1216 
C 179 -1312 256 -1376 352 -1376 
C 538 -1376 576 -1228 621 -1050 
L 922 140 
z
" id="CMMI12-16" transform="scale(0.015625)"/>
       <path d="M 4115 2017 
C 4211 2017 4307 2017 4307 2125 
C 4307 2240 4198 2240 4090 2240 
L 512 2240 
C 403 2240 294 2240 294 2125 
C 294 2017 390 2017 486 2017 
L 4115 2017 
z
M 4090 896 
C 4198 896 4307 896 4307 1011 
C 4307 1119 4211 1119 4115 1119 
L 486 1119 
C 390 1119 294 1119 294 1011 
C 294 896 403 896 512 896 
L 4090 896 
z
" id="CMR17-3d" transform="scale(0.015625)"/>
       <path d="M 1248 -31 
C 1248 343 1126 619 864 619 
C 659 619 557 453 557 313 
C 557 172 653 0 870 0 
C 954 0 1024 26 1082 83 
C 1094 96 1101 96 1107 96 
C 1120 96 1120 5 1120 -27 
C 1120 -240 1082 -659 710 -1080 
C 640 -1157 640 -1170 640 -1183 
C 640 -1216 672 -1248 704 -1248 
C 755 -1248 1248 -771 1248 -31 
z
" id="CMMI12-3b" transform="scale(0.015625)"/>
       <path d="M 1459 1280 
C 1568 1261 1741 1223 1779 1216 
C 1862 1192 2150 1090 2150 783 
C 2150 586 1971 70 1229 70 
C 1094 70 614 70 486 436 
C 742 404 870 603 870 745 
C 870 880 781 950 653 950 
C 512 950 326 841 326 552 
C 326 173 710 -64 1222 -64 
C 2195 -64 2483 651 2483 984 
C 2483 1079 2483 1258 2278 1462 
C 2118 1616 1965 1648 1619 1718 
C 1446 1756 1171 1814 1171 2101 
C 1171 2229 1286 2689 1894 2689 
C 2163 2689 2426 2589 2490 2368 
C 2208 2368 2195 2125 2195 2119 
C 2195 1984 2317 1946 2374 1946 
C 2464 1946 2643 2015 2643 2281 
C 2643 2545 2400 2816 1901 2816 
C 1062 2816 838 2160 838 1899 
C 838 1414 1312 1312 1459 1280 
z
" id="CMMI12-73" transform="scale(0.015625)"/>
      </defs>
      <use transform="scale(0.996264)" xlink:href="#CMMI12-16"/>
      <use transform="translate(86.36543 0)scale(0.996264)" xlink:href="#CMR17-3d"/>
      <use transform="translate(185.754227 0)scale(0.996264)" xlink:href="#CMR17-35"/>
      <use transform="translate(231.444704 0)scale(0.996264)" xlink:href="#CMMI12-3b"/>
      <use transform="translate(305.222253 0)scale(0.996264)" xlink:href="#CMMI12-73"/>
      <use transform="translate(378.846309 0)scale(0.996264)" xlink:href="#CMR17-3d"/>
      <use transform="translate(478.235107 0)scale(0.996264)" xlink:href="#CMR17-32"/>
     </g>
    </g>
    <g id="line2d_44">
     <path d="M 229.09827 183.061617 
L 253.09827 183.061617 
" style="fill:none;stroke:#008000;stroke-linecap:square;stroke-width:1.5;"/>
    </g>
    <g id="line2d_45"/>
    <g id="text_16">
     <!-- $\mu = 9,\ s = 3$ -->
     <g transform="translate(262.69827 187.261617)scale(0.12 -0.12)">
      <defs>
       <path d="M 2253 1864 
C 2253 464 1670 31 1190 31 
C 1043 31 685 31 538 294 
C 704 268 826 357 826 518 
C 826 692 685 749 595 749 
C 538 749 365 723 365 506 
C 365 71 742 -128 1203 -128 
C 1939 -128 2688 674 2688 2073 
C 2688 3817 1971 4179 1485 4179 
C 851 4179 243 3628 243 2778 
C 243 1991 762 1408 1414 1408 
C 1952 1408 2189 1903 2253 2112 
L 2253 1864 
z
M 1427 1510 
C 1254 1510 1011 1542 813 1922 
C 678 2169 678 2461 678 2771 
C 678 3146 678 3405 858 3684 
C 947 3817 1114 4032 1485 4032 
C 2240 4032 2240 2885 2240 2632 
C 2240 2182 2035 1510 1427 1510 
z
" id="CMR17-39" transform="scale(0.015625)"/>
       <path d="M 1414 2157 
C 1984 2157 2234 1662 2234 1090 
C 2234 320 1824 25 1453 25 
C 1114 25 563 194 390 693 
C 422 680 454 680 486 680 
C 640 680 755 782 755 948 
C 755 1133 614 1216 486 1216 
C 378 1216 211 1165 211 926 
C 211 335 787 -128 1466 -128 
C 2176 -128 2720 430 2720 1085 
C 2720 1707 2208 2157 1600 2227 
C 2086 2328 2554 2756 2554 3329 
C 2554 3820 2048 4179 1472 4179 
C 890 4179 378 3829 378 3329 
C 378 3110 544 3072 627 3072 
C 762 3072 877 3155 877 3321 
C 877 3486 762 3569 627 3569 
C 602 3569 570 3569 544 3557 
C 730 3959 1235 4032 1459 4032 
C 1683 4032 2106 3925 2106 3320 
C 2106 3143 2080 2828 1862 2550 
C 1670 2304 1453 2304 1242 2284 
C 1210 2284 1062 2269 1037 2269 
C 992 2263 966 2257 966 2208 
C 966 2163 973 2157 1101 2157 
L 1414 2157 
z
" id="CMR17-33" transform="scale(0.015625)"/>
      </defs>
      <use transform="scale(0.996264)" xlink:href="#CMMI12-16"/>
      <use transform="translate(86.36543 0)scale(0.996264)" xlink:href="#CMR17-3d"/>
      <use transform="translate(185.754227 0)scale(0.996264)" xlink:href="#CMR17-39"/>
      <use transform="translate(231.444704 0)scale(0.996264)" xlink:href="#CMMI12-3b"/>
      <use transform="translate(305.222253 0)scale(0.996264)" xlink:href="#CMMI12-73"/>
      <use transform="translate(378.846309 0)scale(0.996264)" xlink:href="#CMR17-3d"/>
      <use transform="translate(478.235107 0)scale(0.996264)" xlink:href="#CMR17-33"/>
     </g>
    </g>
    <g id="line2d_46">
     <path d="M 229.09827 199.786213 
L 253.09827 199.786213 
" style="fill:none;stroke:#ff0000;stroke-linecap:square;stroke-width:1.5;"/>
    </g>
    <g id="line2d_47"/>
    <g id="text_17">
     <!-- $\mu = 9,\ s = 4$ -->
     <g transform="translate(262.69827 203.986213)scale(0.12 -0.12)">
      <use transform="scale(0.996264)" xlink:href="#CMMI12-16"/>
      <use transform="translate(86.36543 0)scale(0.996264)" xlink:href="#CMR17-3d"/>
      <use transform="translate(185.754227 0)scale(0.996264)" xlink:href="#CMR17-39"/>
      <use transform="translate(231.444704 0)scale(0.996264)" xlink:href="#CMMI12-3b"/>
      <use transform="translate(305.222253 0)scale(0.996264)" xlink:href="#CMMI12-73"/>
      <use transform="translate(378.846309 0)scale(0.996264)" xlink:href="#CMR17-3d"/>
      <use transform="translate(478.235107 0)scale(0.996264)" xlink:href="#CMR17-34"/>
     </g>
    </g>
    <g id="line2d_48">
     <path d="M 229.09827 216.510808 
L 253.09827 216.510808 
" style="fill:none;stroke:#00bfbf;stroke-linecap:square;stroke-width:1.5;"/>
    </g>
    <g id="line2d_49"/>
    <g id="text_18">
     <!-- $\mu = 6,\ s = 2$ -->
     <g transform="translate(262.69827 220.710808)scale(0.12 -0.12)">
      <use transform="scale(0.996264)" xlink:href="#CMMI12-16"/>
      <use transform="translate(86.36543 0)scale(0.996264)" xlink:href="#CMR17-3d"/>
      <use transform="translate(185.754227 0)scale(0.996264)" xlink:href="#CMR17-36"/>
      <use transform="translate(231.444704 0)scale(0.996264)" xlink:href="#CMMI12-3b"/>
      <use transform="translate(305.222253 0)scale(0.996264)" xlink:href="#CMMI12-73"/>
      <use transform="translate(378.846309 0)scale(0.996264)" xlink:href="#CMR17-3d"/>
      <use transform="translate(478.235107 0)scale(0.996264)" xlink:href="#CMR17-32"/>
     </g>
    </g>
    <g id="line2d_50">
     <path d="M 229.09827 233.235404 
L 253.09827 233.235404 
" style="fill:none;stroke:#bf00bf;stroke-linecap:square;stroke-width:1.5;"/>
    </g>
    <g id="line2d_51"/>
    <g id="text_19">
     <!-- $\mu = 2,\ s = 1$ -->
     <g transform="translate(262.69827 237.435404)scale(0.12 -0.12)">
      <use transform="scale(0.996264)" xlink:href="#CMMI12-16"/>
      <use transform="translate(86.36543 0)scale(0.996264)" xlink:href="#CMR17-3d"/>
      <use transform="translate(185.754227 0)scale(0.996264)" xlink:href="#CMR17-32"/>
      <use transform="translate(231.444704 0)scale(0.996264)" xlink:href="#CMMI12-3b"/>
      <use transform="translate(305.222253 0)scale(0.996264)" xlink:href="#CMMI12-73"/>
      <use transform="translate(378.846309 0)scale(0.996264)" xlink:href="#CMR17-3d"/>
      <use transform="translate(478.235107 0)scale(0.996264)" xlink:href="#CMR17-31"/>
     </g>
    </g>
   </g>
  </g>
 </g>
 <defs>
  <clipPath id="p8e169190b8">
   <rect height="230.4" width="284.4" x="54" y="20.16"/>
  </clipPath>
 </defs>
</svg>
